<svg xmlns="http://www.w3.org/2000/svg" viewBox="0 0 32 32"><defs><linearGradient id="b" x1="0" y1="0" x2="1" y2="0"><stop offset="0" stop-color="#b3c2da"/><stop offset=".5" stop-color="#f1f5fb"/><stop offset="1" stop-color="#98a9c7"/></linearGradient></defs><path d="M6.5 9 9.3 28.2Q16 30.2 22.7 28.2L25.5 9Z" fill="url(#b)" stroke="#56688b"/><g stroke="#7888ab" stroke-width=".8" fill="none"><path d="M10.8 10.5 12 28.6M14.2 11 14.7 29.2M17.8 11 17.3 29.2M21.2 10.5 20 28.6"/><path d="M7.8 15.5Q16 17.2 24.2 15.5M8.6 21.5Q16 23 23.4 21.5"/></g><ellipse cx="16" cy="9" rx="9.5" ry="2.8" fill="#e2e9f5" stroke="#56688b"/><ellipse cx="16" cy="9" rx="7.4" ry="1.7" fill="#7f90b2"/><path d="M9.5 9.6 11.2 2.6l7 1.6-1.4 5.6Z" fill="#fff" stroke="#8a8a8a" stroke-width=".7"/><path d="M12.4 5h4M12 6.6h4" stroke="#b5b5b5" stroke-width=".6"/><path d="M15.5 9.8 21.8 3l3.6 3.8-4.6 3.4Z" fill="#fff8d6" stroke="#8a8a8a" stroke-width=".7"/><circle cx="20.5" cy="9.2" r="2.3" fill="#f3f3f3" stroke="#8a8a8a" stroke-width=".7"/></svg>
